# xmcd
#
# Track frame offsets: 
#        150
#        12815
#        25278
#        38075
#        51465
#        66425
#        79773
#        92480
#        103508
#        116653
#        129955
#        141813
#        152540
#        161955
#        171973
#        183980
#        197505
#        209103
#        220590
#        232050
#        244920
#        255543
#        266585
#        280733
#        293903
#        306140
#
# Disc length: 4261 seconds
#
# Revision: 4
# Processed by: cddbd v1.5.2PL0 Copyright (c) Steve Scherf et al.
# Submitted via: ExactAudioCopyFreeDBPlugin 1.0
#
DISCID=7a10a31a
DTITLE=Various Artist - The Specialty Story [box set]
DYEAR=1994
DGENRE=Rhythm and Blues
TTITLE0=The Sepia Tones - Boogie #1
TTITLE1=The Blues Woman (Marion Abernathy) - Voo-It! Voo-It!
TTITLE2=Roy Milton and His Solid Senders - Milton's Boogie
TTITLE3=Roy Milton and His Solid Senders - R.M. Blues
TTITLE4=Jump Jackson Band - Rainy Day Blues
TTITLE5=The Blues Man (Roosevelt Sykes) - Ice Cream Freezer
TTITLE6=Roy Milton and His Solid Senders - True Blues
TTITLE7=Joe Lutcher and His Society Cats - Rockin' Boogie
TTITLE8=Roy Milton and His Solid Senders - Thrill Me
TTITLE9=Jimmy Liggins and His Drops of Joy - Teardrop Blues
TTITLE10=Jimmy Liggins and His Drops of Joy - Cadillac Boogie
TTITLE11=Roy Milton and His Solid Senders - Keep a Dollar in Your Pock
TTITLE11=et
TTITLE12=Camille Howard - X-Temporaneous Boogie
TTITLE13=Camille Howard - You Don't Love Me
TTITLE14=Jim Wynn - Fat Meat
TTITLE15=Roy Milton and His Solid Senders - Everything I Do is Wrong
TTITLE16=Roy Milton and His Solid Senders - Hop, Skip, Jump
TTITLE17=Jimmy Liggins and His Drops Of Joy - Careful Love
TTITLE18=Big Maceo - Big City Blues
TTITLE19=Smokey Hogg - I Want a Roller
TTITLE20=Roy Milton and His Solid Senders - The Hucklebuck
TTITLE21=Camille Howard - Fiesta in Old Mexico
TTITLE22=Joe Liggins and His Honeydrippers - The Honeydripper
TTITLE23=Jimmy Liggins and His Drops Of Joy - Don't Put Me Down
TTITLE24=Roy Milton and His Solid Senders - Information Blues
TTITLE25=Joe Liggins and His Honeydrippers - Rag Mop
EXTD=Input by Bill (whall@netcomuk.co.uk)
EXTT0=
EXTT1=
EXTT2=
EXTT3=
EXTT4=
EXTT5=
EXTT6=
EXTT7=
EXTT8=
EXTT9=
EXTT10=
EXTT11=
EXTT12=
EXTT13=
EXTT14=
EXTT15=
EXTT16=
EXTT17=
EXTT18=
EXTT19=
EXTT20=
EXTT21=
EXTT22=
EXTT23=
EXTT24=
EXTT25=
PLAYORDER=
